# xmcd CD database file
#
# Track frame offsets:
#	150
#	10639
#	23372
#	38052
#	53049
#	70246
#	93179
#	107721
#	124142
#	150887
#	178369
#	197861
#	223094
#	236650
#	261906
#	283821
#
# Disc length: 4083 seconds
#
# Revision: 0
# Processed by: cddbd v1.5.2PL0 Copyright (c) Steve Scherf et al.
# Submitted via: CDex 1.51
#
DISCID=d80ff110
DTITLE=Various Artist - Jazz For Weekend CD2
DYEAR=2010
DGENRE=Jazz
TTITLE0=The Gravy Waltz
TTITLE1=I Don't Want Nothin'
TTITLE2=Baby, It's Cold Outside
TTITLE3=Bring It Home (To Me)
TTITLE4=That's All
TTITLE5=Stardust
TTITLE6=Round Midnight
TTITLE7=Soft Lullaby
TTITLE8=Out Of The Winter
TTITLE9=OGD (Road Song)
TTITLE10=Perfect Love
TTITLE11=No problema
TTITLE12=It Ain't Over 'Til It's Over
TTITLE13=One
TTITLE14=Leaving Paris
TTITLE15=Cheek to Cheek
EXTD=YEAR: 2010
EXTT0=
EXTT1=
EXTT2=
EXTT3=
EXTT4=
EXTT5=
EXTT6=
EXTT7=
EXTT8=
EXTT9=
EXTT10=
EXTT11=
EXTT12=
EXTT13=
EXTT14=
EXTT15=
PLAYORDER=
